<svg width="26" height="26" viewBox="0 0 26 26" fill="none" xmlns="http://www.w3.org/2000/svg">
<g clip-path="url(#clip0_51_4058)">
<path d="M18.1579 11.372C18.6917 11.3734 19.2205 11.269 19.7137 11.0647C20.2069 10.8603 20.6547 10.5602 21.0311 10.1817L24.9412 6.27404C25.2505 5.96478 25.2789 5.46154 24.9844 5.13704C24.9105 5.05552 24.8207 4.98987 24.7206 4.94407C24.6206 4.89827 24.5122 4.87329 24.4022 4.87063C24.2922 4.86797 24.1827 4.88769 24.0806 4.9286C23.9784 4.96951 23.8856 5.03075 23.8078 5.10861L20.3227 8.59118C20.2057 8.70806 20.047 8.77371 19.8816 8.77371C19.7162 8.77371 19.5576 8.70806 19.4406 8.59118C19.1974 8.34845 19.2106 7.93814 19.4533 7.6954L22.9232 4.22552C23.001 4.14774 23.0621 4.05497 23.103 3.95284C23.1439 3.85071 23.1636 3.74135 23.1609 3.63138C23.1582 3.52141 23.1333 3.41313 23.0875 3.3131C23.0418 3.21306 22.9762 3.12336 22.8947 3.04943C22.7477 2.91605 22.556 2.84267 22.3575 2.84376C22.2461 2.84381 22.1358 2.86581 22.0329 2.90851C21.93 2.9512 21.8365 3.01375 21.7578 3.09259L18.2909 6.55892C18.1739 6.67579 18.0153 6.74144 17.8499 6.74144C17.6845 6.74144 17.5259 6.67579 17.4088 6.55892C17.1661 6.31618 17.1788 5.90587 17.4215 5.66314L20.8914 2.19427C20.9692 2.11648 21.0304 2.02372 21.0712 1.92159C21.1121 1.81946 21.1318 1.7101 21.1291 1.60013C21.1265 1.49016 21.1015 1.38188 21.0558 1.28185C21.01 1.18181 20.9444 1.09211 20.863 1.01818C20.7159 0.884805 20.5242 0.81142 20.3257 0.812512C20.1008 0.812778 19.8851 0.902264 19.726 1.06134L15.8184 4.96896C15.4398 5.34545 15.1397 5.7933 14.9353 6.28657C14.731 6.77985 14.6266 7.30875 14.6281 7.84267V8.2606C14.6281 8.36745 14.6072 8.47327 14.5663 8.572C14.5254 8.67072 14.4655 8.76042 14.3899 8.83595L12.5816 10.6448C12.5627 10.6637 12.5403 10.6786 12.5157 10.6889C12.491 10.6991 12.4646 10.7044 12.4379 10.7044C12.4112 10.7044 12.3847 10.6991 12.3601 10.6889C12.3354 10.6786 12.313 10.6637 12.2942 10.6448L3.49478 1.84489C3.34291 1.69285 3.13699 1.60717 2.92209 1.6066C2.70719 1.60602 2.50082 1.69061 2.34814 1.84185C1.57881 2.60407 1.16799 3.68013 1.16799 4.95322C1.16291 7.05556 2.26791 9.47275 4.05185 11.2542L8.39111 15.5934C9.00788 16.2088 9.84356 16.5546 10.7149 16.5547C10.9926 16.5548 11.2693 16.5193 11.538 16.4491C11.6055 16.4314 11.6749 16.4223 11.7447 16.4222C11.9487 16.4222 12.1451 16.4993 12.2947 16.638L12.8731 17.1722C13.0222 17.3246 13.1061 17.5292 13.1067 17.7425V18.0238C13.1052 18.6633 13.3565 19.2776 13.8059 19.7326L18.3788 24.3826L18.3833 24.3877C18.8909 24.8952 19.5792 25.1803 20.297 25.1802C21.0147 25.1802 21.703 24.895 22.2105 24.3875C22.7179 23.8799 23.003 23.1916 23.003 22.4738C23.0029 21.7561 22.7178 21.0678 22.2102 20.5603L15.3558 13.7059C15.3369 13.687 15.3219 13.6646 15.3117 13.6399C15.3014 13.6153 15.2962 13.5889 15.2962 13.5622C15.2962 13.5355 15.3014 13.509 15.3117 13.4844C15.3219 13.4597 15.3369 13.4373 15.3558 13.4184L17.1641 11.6101C17.2395 11.5346 17.3292 11.4747 17.4278 11.4338C17.5264 11.393 17.6322 11.3719 17.7389 11.372H18.1579Z" fill="white"/>
<path d="M10.7148 18.1797C9.41399 18.1771 8.16666 17.6616 7.24342 16.7452L6.53959 16.0413C6.46344 15.9654 6.36025 15.9227 6.25268 15.9227C6.14511 15.9227 6.04192 15.9654 5.96577 16.0413L1.64936 20.3354C0.880024 21.1047 0.605297 22.2372 0.986157 23.3462C1.00752 23.4087 1.03279 23.4697 1.06182 23.529C1.5742 24.5782 2.5685 25.1875 3.65623 25.1875C4.03031 25.1885 4.40084 25.1152 4.74638 24.9718C5.09191 24.8285 5.40558 24.6181 5.6692 24.3527L11.4258 18.5687C11.45 18.544 11.4685 18.5143 11.4801 18.4817C11.4917 18.449 11.496 18.4143 11.4928 18.3798V18.3666C11.4905 18.3349 11.4819 18.3041 11.4674 18.2758C11.4529 18.2476 11.4328 18.2226 11.4083 18.2023C11.3839 18.1821 11.3556 18.167 11.3252 18.1579C11.2948 18.1489 11.2628 18.1461 11.2313 18.1498C11.0598 18.1688 10.8874 18.1788 10.7148 18.1797Z" fill="white"/>
</g>
<defs>
<clipPath id="clip0_51_4058">
<rect width="26" height="26" fill="white"/>
</clipPath>
</defs>
</svg>
