<svg width="30" height="30" viewBox="0 0 30 30" fill="none" xmlns="http://www.w3.org/2000/svg">
<path d="M12 7.49991C12 6.70426 12.3161 5.9412 12.8787 5.37859C13.4413 4.81598 14.2043 4.49991 15 4.49991C15.7956 4.49991 16.5587 4.81598 17.1213 5.37859C17.6839 5.9412 18 6.70426 18 7.49991V8.68491C22.338 9.97491 25.5 13.9934 25.5 18.7499C25.5 18.9488 25.421 19.1396 25.2803 19.2802C25.1397 19.4209 24.9489 19.4999 24.75 19.4999H5.25C5.05109 19.4999 4.86032 19.4209 4.71967 19.2802C4.57902 19.1396 4.5 18.9488 4.5 18.7499C4.49942 16.4883 5.2291 14.2869 6.58047 12.4733C7.93183 10.6598 9.83263 9.33109 12 8.68491V7.49991ZM15.75 12.7499C16.383 12.7499 17.01 12.7559 17.652 12.9869C18.2715 13.2089 18.957 13.6634 19.626 14.6669C19.6807 14.7489 19.7509 14.8192 19.8328 14.874C19.9146 14.9288 20.0065 14.9669 20.1031 14.9862C20.1997 15.0055 20.2991 15.0056 20.3958 14.9865C20.4924 14.9673 20.5843 14.9293 20.6662 14.8747C20.7482 14.82 20.8186 14.7497 20.8734 14.6679C20.9281 14.586 20.9663 14.4942 20.9856 14.3976C21.0049 14.301 21.0049 14.2015 20.9858 14.1049C20.9666 14.0083 20.9287 13.9164 20.874 13.8344C20.0415 12.5864 19.104 11.9144 18.159 11.5754C17.2575 11.2499 16.395 11.2499 15.78 11.2499H15.75C15.5511 11.2499 15.3603 11.3289 15.2197 11.4696C15.079 11.6102 15 11.801 15 11.9999C15 12.1988 15.079 12.3896 15.2197 12.5302C15.3603 12.6709 15.5511 12.7499 15.75 12.7499ZM5.25 20.9999C4.65326 20.9999 4.08097 21.237 3.65901 21.6589C3.23705 22.0809 3 22.6532 3 23.2499C3 23.8466 3.23705 24.4189 3.65901 24.8409C4.08097 25.2629 4.65326 25.4999 5.25 25.4999H24.75C25.3467 25.4999 25.919 25.2629 26.341 24.8409C26.7629 24.4189 27 23.8466 27 23.2499C27 22.6532 26.7629 22.0809 26.341 21.6589C25.919 21.237 25.3467 20.9999 24.75 20.9999H5.25Z" fill="white"/>
</svg>
