<svg width="25" height="22" viewBox="0 0 25 22" fill="none" xmlns="http://www.w3.org/2000/svg">
<g clip-path="url(#clip0_44_3797)">
<path d="M21.3126 9.625C21.7205 9.625 22.1192 9.50404 22.4584 9.27741C22.7976 9.05078 23.062 8.72866 23.2181 8.35179C23.3742 7.97491 23.415 7.56021 23.3354 7.16013C23.2558 6.76004 23.0594 6.39254 22.771 6.10409C22.4825 5.81565 22.115 5.61921 21.7149 5.53963C21.3148 5.46005 20.9001 5.50089 20.5233 5.657C20.1464 5.8131 19.8243 6.07746 19.5977 6.41664C19.371 6.75581 19.2501 7.15458 19.2501 7.5625C19.2501 8.10951 19.4674 8.63412 19.8542 9.02091C20.2409 9.4077 20.7656 9.625 21.3126 9.625ZM13.3835 7.66777C13.6138 7.59786 13.8532 7.56238 14.0938 7.5625C14.3726 7.56482 14.6488 7.61556 14.9102 7.71246L15.5698 5.62375C15.6162 5.47792 15.6295 5.32359 15.6088 5.17196C15.5882 5.02033 15.534 4.87521 15.4503 4.7471C15.3666 4.619 15.2554 4.51114 15.1248 4.43133C14.9943 4.35153 14.8476 4.30178 14.6954 4.2857C14.1999 4.2277 13.741 4.56242 13.5906 5.03809L12.6926 7.88133L13.3835 7.66777ZM4.02408 16.6001C4.05846 16.592 4.09026 16.5769 4.12506 16.5696V15.4657C4.12619 14.0568 4.57127 12.684 5.39708 11.5424C6.22289 10.4007 7.38744 9.54839 8.7253 9.10637L11.8921 8.1284L13.3599 3.48262C13.406 3.33693 13.4192 3.1828 13.3985 3.03139C13.3778 2.87998 13.3236 2.73507 13.24 2.60714C13.1564 2.47921 13.0455 2.37146 12.9151 2.29168C12.7848 2.21191 12.6383 2.1621 12.4864 2.14586C11.9909 2.08828 11.5316 2.42301 11.3812 2.89867L9.94389 7.47141C9.91637 7.55836 9.85543 7.63082 9.77449 7.67284C9.69354 7.71486 9.59922 7.72301 9.51227 7.69549C9.42532 7.66797 9.35286 7.60703 9.31084 7.52609C9.26881 7.44514 9.26066 7.35082 9.28819 7.26387L11.1517 1.3432C11.1979 1.19751 11.2111 1.04339 11.1903 0.891975C11.1696 0.740565 11.1155 0.595654 11.0319 0.467724C10.9483 0.339795 10.8373 0.232045 10.7069 0.152269C10.5766 0.0724923 10.4301 0.0226838 10.2782 0.00644593C9.78276 -0.0511322 9.32428 0.283594 9.17346 0.758829L7.11397 7.27762C7.0865 7.36457 7.02562 7.43705 6.94472 7.47911C6.86381 7.52118 6.76951 7.52938 6.68256 7.50191C6.59561 7.47445 6.52313 7.41357 6.48107 7.33266C6.439 7.25176 6.4308 7.15746 6.45826 7.07051L8.11514 1.82832C8.16128 1.68263 8.17446 1.5285 8.15373 1.37709C8.133 1.22568 8.07888 1.08077 7.99528 0.952841C7.91168 0.824912 7.80069 0.717162 7.67034 0.637386C7.53999 0.557609 7.39354 0.507801 7.24158 0.491563C6.74615 0.429688 6.28725 0.766133 6.13686 1.2418L3.55873 9.39942L3.47022 7.24883C3.47107 7.11337 3.44522 6.97906 3.39415 6.85359C3.34308 6.72812 3.26779 6.61395 3.17258 6.51758C3.07737 6.42122 2.96411 6.34455 2.83927 6.29197C2.71443 6.23939 2.58045 6.21192 2.44498 6.21113C1.87651 6.20899 1.3828 6.66402 1.37506 7.23637V12.0802C1.3886 12.9983 1.63972 13.8971 2.10397 14.6892C2.56821 15.4814 3.22974 16.1397 4.02408 16.6001ZM22.3051 14.4375H15.4688C15.3776 14.4375 15.2902 14.4013 15.2257 14.3368C15.1613 14.2724 15.1251 14.1849 15.1251 14.0938C15.1251 14.0026 15.1613 13.9151 15.2257 13.8507C15.2902 13.7862 15.3776 13.75 15.4688 13.75H20.9688C21.1216 13.7501 21.2726 13.7162 21.4107 13.6509C21.5489 13.5855 21.6707 13.4902 21.7676 13.3719C21.8644 13.2537 21.9337 13.1154 21.9705 12.967C22.0072 12.8187 22.0106 12.664 21.9803 12.5142C21.8862 12.0244 21.429 11.6875 20.9301 11.6875H12.3751L14.3985 10.9545C14.5279 10.9144 14.6482 10.8493 14.7525 10.7628C14.8568 10.6763 14.943 10.5701 15.0062 10.4503C15.0695 10.3305 15.1085 10.1994 15.1211 10.0645C15.1336 9.9296 15.1195 9.79355 15.0795 9.6641C15.0395 9.53466 14.9744 9.41436 14.8879 9.31008C14.8014 9.2058 14.6952 9.11958 14.5754 9.05633C14.4556 8.99309 14.3245 8.95407 14.1896 8.9415C14.0547 8.92892 13.9186 8.94304 13.7892 8.98305L9.16057 10.4118C8.09565 10.7619 7.16845 11.4392 6.51115 12.3473C5.85384 13.2554 5.5 14.3478 5.50006 15.4688V16.5709C5.99586 16.6708 6.46342 16.8791 6.86922 17.181C7.27502 17.4828 7.60899 17.8707 7.8472 18.3169C8.08541 18.763 8.22195 19.2563 8.24703 19.7615C8.2721 20.2666 8.1851 20.771 7.99225 21.2386C8.79318 21.7329 9.71511 21.9964 10.6563 22H19.5938C19.7466 22.0001 19.8976 21.9662 20.0357 21.9009C20.1739 21.8355 20.2957 21.7402 20.3926 21.6219C20.4894 21.5037 20.5587 21.3654 20.5955 21.217C20.6322 21.0687 20.6356 20.914 20.6053 20.7642C20.5112 20.2744 20.054 19.9375 19.5551 19.9375H15.4688C15.3776 19.9375 15.2902 19.9013 15.2257 19.8368C15.1613 19.7724 15.1251 19.6849 15.1251 19.5938C15.1251 19.5026 15.1613 19.4151 15.2257 19.3507C15.2902 19.2862 15.3776 19.25 15.4688 19.25H20.9688C21.1216 19.2501 21.2726 19.2162 21.4107 19.1509C21.5489 19.0855 21.6707 18.9902 21.7676 18.8719C21.8644 18.7537 21.9337 18.6154 21.9705 18.467C22.0072 18.3187 22.0106 18.164 21.9803 18.0142C21.8862 17.5244 21.429 17.1875 20.9301 17.1875H15.4688C15.3776 17.1875 15.2902 17.1513 15.2257 17.0868C15.1613 17.0224 15.1251 16.9349 15.1251 16.8438C15.1251 16.7526 15.1613 16.6651 15.2257 16.6007C15.2902 16.5362 15.3776 16.5 15.4688 16.5H22.3438C22.4966 16.5001 22.6476 16.4662 22.7857 16.4009C22.9239 16.3355 23.0457 16.2402 23.1426 16.1219C23.2394 16.0037 23.3087 15.8654 23.3455 15.717C23.3822 15.5687 23.3856 15.414 23.3553 15.2642C23.2612 14.7744 22.804 14.4375 22.3051 14.4375ZM17.8751 2.75C18.147 2.75 18.4129 2.66936 18.639 2.51827C18.8651 2.36718 19.0413 2.15244 19.1454 1.90119C19.2495 1.64994 19.2767 1.37348 19.2236 1.10675C19.1706 0.840028 19.0396 0.595026 18.8473 0.402729C18.655 0.210432 18.41 0.0794755 18.1433 0.0264209C17.8766 -0.0266338 17.6001 0.000595761 17.3489 0.104666C17.0976 0.208737 16.8829 0.384974 16.7318 0.611092C16.5807 0.837209 16.5001 1.10305 16.5001 1.375C16.5001 1.73967 16.6449 2.08941 16.9028 2.34727C17.1607 2.60513 17.5104 2.75 17.8751 2.75ZM4.81256 17.875C4.40464 17.875 4.00587 17.996 3.6667 18.2226C3.32752 18.4492 3.06317 18.7713 2.90706 19.1482C2.75095 19.5251 2.71011 19.9398 2.78969 20.3399C2.86927 20.74 3.06571 21.1075 3.35415 21.3959C3.6426 21.6844 4.0101 21.8808 4.41019 21.9604C4.81027 22.04 5.22497 21.9991 5.60185 21.843C5.97872 21.6869 6.30084 21.4225 6.52747 21.0834C6.7541 20.7442 6.87506 20.3454 6.87506 19.9375C6.87506 19.3905 6.65776 18.8659 6.27097 18.4791C5.88418 18.0923 5.35957 17.875 4.81256 17.875Z" fill="white"/>
</g>
<defs>
<clipPath id="clip0_44_3797">
<rect width="24.75" height="22" fill="white"/>
</clipPath>
</defs>
</svg>
